<mxfile host="app.diagrams.net" modified="2021-03-12T09:56:21.779Z" agent="5.0 (X11; Linux x86_64) AppleWebKit/537.36 (KHTML, like Gecko) Chrome/89.0.4389.82 Safari/537.36" etag="iDe2QLmYL_t3diLfM2R8" version="14.4.7" type="github" pages="4">
  <diagram id="5jAd6vqPjrp9riMwKww9" name="0001">
    <mxGraphModel dx="1422" dy="761" grid="1" gridSize="10" guides="1" tooltips="1" connect="1" arrows="1" fold="1" page="1" pageScale="1" pageWidth="827" pageHeight="1169" math="0" shadow="0">
      <root>
        <mxCell id="0" />
        <mxCell id="1" parent="0" />
        <mxCell id="yQNnCstJemZtDpDRW7JI-6" value="" style="edgeStyle=orthogonalEdgeStyle;rounded=0;orthogonalLoop=1;jettySize=auto;html=1;" edge="1" parent="1" source="yQNnCstJemZtDpDRW7JI-1" target="yQNnCstJemZtDpDRW7JI-5">
          <mxGeometry relative="1" as="geometry" />
        </mxCell>
        <mxCell id="yQNnCstJemZtDpDRW7JI-1" value="A" style="rounded=0;whiteSpace=wrap;html=1;" vertex="1" parent="1">
          <mxGeometry x="130" y="130" width="120" height="60" as="geometry" />
        </mxCell>
        <mxCell id="yQNnCstJemZtDpDRW7JI-5" value="B" style="whiteSpace=wrap;html=1;rounded=0;" vertex="1" parent="1">
          <mxGeometry x="130" y="270" width="120" height="60" as="geometry" />
        </mxCell>
      </root>
    </mxGraphModel>
  </diagram>
  <diagram id="4RwMTvpkGJybKEBWo5Cw" name="0002">
    <mxGraphModel dx="1422" dy="761" grid="1" gridSize="10" guides="1" tooltips="1" connect="1" arrows="1" fold="1" page="1" pageScale="1" pageWidth="827" pageHeight="1169" math="0" shadow="0">
      <root>
        <mxCell id="WsEtE5bpDhkpFEhNQE7J-0" />
        <mxCell id="WsEtE5bpDhkpFEhNQE7J-1" parent="WsEtE5bpDhkpFEhNQE7J-0" />
        <mxCell id="WsEtE5bpDhkpFEhNQE7J-4" value="" style="edgeStyle=orthogonalEdgeStyle;rounded=0;orthogonalLoop=1;jettySize=auto;html=1;" edge="1" parent="WsEtE5bpDhkpFEhNQE7J-1" source="WsEtE5bpDhkpFEhNQE7J-2" target="WsEtE5bpDhkpFEhNQE7J-3">
          <mxGeometry relative="1" as="geometry" />
        </mxCell>
        <mxCell id="WsEtE5bpDhkpFEhNQE7J-8" style="orthogonalLoop=1;jettySize=auto;html=1;rounded=0;entryX=0.25;entryY=0;entryDx=0;entryDy=0;" edge="1" parent="WsEtE5bpDhkpFEhNQE7J-1" source="WsEtE5bpDhkpFEhNQE7J-2" target="WsEtE5bpDhkpFEhNQE7J-7">
          <mxGeometry relative="1" as="geometry" />
        </mxCell>
        <mxCell id="WsEtE5bpDhkpFEhNQE7J-2" value="A1" style="rounded=0;whiteSpace=wrap;html=1;" vertex="1" parent="WsEtE5bpDhkpFEhNQE7J-1">
          <mxGeometry x="80" y="80" width="120" height="60" as="geometry" />
        </mxCell>
        <mxCell id="WsEtE5bpDhkpFEhNQE7J-3" value="B1" style="whiteSpace=wrap;html=1;rounded=0;" vertex="1" parent="WsEtE5bpDhkpFEhNQE7J-1">
          <mxGeometry x="80" y="220" width="120" height="60" as="geometry" />
        </mxCell>
        <mxCell id="WsEtE5bpDhkpFEhNQE7J-5" value="" style="edgeStyle=orthogonalEdgeStyle;rounded=0;orthogonalLoop=1;jettySize=auto;html=1;" edge="1" source="WsEtE5bpDhkpFEhNQE7J-6" target="WsEtE5bpDhkpFEhNQE7J-7" parent="WsEtE5bpDhkpFEhNQE7J-1">
          <mxGeometry relative="1" as="geometry" />
        </mxCell>
        <mxCell id="WsEtE5bpDhkpFEhNQE7J-9" style="edgeStyle=none;rounded=0;orthogonalLoop=1;jettySize=auto;html=1;entryX=0.75;entryY=0;entryDx=0;entryDy=0;" edge="1" parent="WsEtE5bpDhkpFEhNQE7J-1" source="WsEtE5bpDhkpFEhNQE7J-6" target="WsEtE5bpDhkpFEhNQE7J-3">
          <mxGeometry relative="1" as="geometry" />
        </mxCell>
        <mxCell id="WsEtE5bpDhkpFEhNQE7J-6" value="A2" style="rounded=0;whiteSpace=wrap;html=1;" vertex="1" parent="WsEtE5bpDhkpFEhNQE7J-1">
          <mxGeometry x="300" y="80" width="120" height="60" as="geometry" />
        </mxCell>
        <mxCell id="WsEtE5bpDhkpFEhNQE7J-7" value="B2" style="whiteSpace=wrap;html=1;rounded=0;" vertex="1" parent="WsEtE5bpDhkpFEhNQE7J-1">
          <mxGeometry x="300" y="220" width="120" height="60" as="geometry" />
        </mxCell>
      </root>
    </mxGraphModel>
  </diagram>
  <diagram id="WMayHYMWM2Mx-8Hi5PwG" name="0003">
    <mxGraphModel dx="1422" dy="761" grid="1" gridSize="10" guides="1" tooltips="1" connect="1" arrows="1" fold="1" page="1" pageScale="1" pageWidth="827" pageHeight="1169" math="0" shadow="0">
      <root>
        <mxCell id="nlXYqhdNusiQO3O8TCGi-0" />
        <mxCell id="nlXYqhdNusiQO3O8TCGi-1" parent="nlXYqhdNusiQO3O8TCGi-0" />
        <mxCell id="VdPlXLO7gHs23WJZOi9A-0" value="" style="edgeStyle=orthogonalEdgeStyle;rounded=0;orthogonalLoop=1;jettySize=auto;html=1;" edge="1" parent="nlXYqhdNusiQO3O8TCGi-1" source="VdPlXLO7gHs23WJZOi9A-2" target="VdPlXLO7gHs23WJZOi9A-3">
          <mxGeometry relative="1" as="geometry" />
        </mxCell>
        <mxCell id="VdPlXLO7gHs23WJZOi9A-1" style="orthogonalLoop=1;jettySize=auto;html=1;rounded=0;entryX=0.25;entryY=0;entryDx=0;entryDy=0;" edge="1" parent="nlXYqhdNusiQO3O8TCGi-1" source="VdPlXLO7gHs23WJZOi9A-2" target="VdPlXLO7gHs23WJZOi9A-7">
          <mxGeometry relative="1" as="geometry" />
        </mxCell>
        <mxCell id="VdPlXLO7gHs23WJZOi9A-2" value="A1" style="rounded=0;whiteSpace=wrap;html=1;" vertex="1" parent="nlXYqhdNusiQO3O8TCGi-1">
          <mxGeometry x="80" y="80" width="120" height="60" as="geometry" />
        </mxCell>
        <mxCell id="VdPlXLO7gHs23WJZOi9A-3" value="B1" style="whiteSpace=wrap;html=1;rounded=0;fillColor=#999999;" vertex="1" parent="nlXYqhdNusiQO3O8TCGi-1">
          <mxGeometry x="80" y="220" width="120" height="60" as="geometry" />
        </mxCell>
        <mxCell id="VdPlXLO7gHs23WJZOi9A-4" value="" style="edgeStyle=orthogonalEdgeStyle;rounded=0;orthogonalLoop=1;jettySize=auto;html=1;" edge="1" parent="nlXYqhdNusiQO3O8TCGi-1" source="VdPlXLO7gHs23WJZOi9A-6" target="VdPlXLO7gHs23WJZOi9A-7">
          <mxGeometry relative="1" as="geometry" />
        </mxCell>
        <mxCell id="VdPlXLO7gHs23WJZOi9A-5" style="edgeStyle=none;rounded=0;orthogonalLoop=1;jettySize=auto;html=1;entryX=0.75;entryY=0;entryDx=0;entryDy=0;" edge="1" parent="nlXYqhdNusiQO3O8TCGi-1" source="VdPlXLO7gHs23WJZOi9A-6" target="VdPlXLO7gHs23WJZOi9A-3">
          <mxGeometry relative="1" as="geometry" />
        </mxCell>
        <mxCell id="VdPlXLO7gHs23WJZOi9A-6" value="A2" style="rounded=0;whiteSpace=wrap;html=1;" vertex="1" parent="nlXYqhdNusiQO3O8TCGi-1">
          <mxGeometry x="300" y="80" width="120" height="60" as="geometry" />
        </mxCell>
        <mxCell id="VdPlXLO7gHs23WJZOi9A-7" value="B2" style="whiteSpace=wrap;html=1;rounded=0;" vertex="1" parent="nlXYqhdNusiQO3O8TCGi-1">
          <mxGeometry x="300" y="220" width="120" height="60" as="geometry" />
        </mxCell>
      </root>
    </mxGraphModel>
  </diagram>
  <diagram id="whruS6IfaM11hJSJHBQJ" name="Page-4">
    <mxGraphModel dx="1422" dy="761" grid="1" gridSize="10" guides="1" tooltips="1" connect="1" arrows="1" fold="1" page="1" pageScale="1" pageWidth="827" pageHeight="1169" math="0" shadow="0">
      <root>
        <mxCell id="wCv3o4SlWXgTBWyX9Gei-0" />
        <mxCell id="wCv3o4SlWXgTBWyX9Gei-1" parent="wCv3o4SlWXgTBWyX9Gei-0" />
        <mxCell id="wCv3o4SlWXgTBWyX9Gei-3" style="orthogonalLoop=1;jettySize=auto;html=1;rounded=0;entryX=0.25;entryY=0;entryDx=0;entryDy=0;" edge="1" parent="wCv3o4SlWXgTBWyX9Gei-1" source="wCv3o4SlWXgTBWyX9Gei-4" target="wCv3o4SlWXgTBWyX9Gei-9">
          <mxGeometry relative="1" as="geometry" />
        </mxCell>
        <mxCell id="wCv3o4SlWXgTBWyX9Gei-4" value="A1" style="rounded=0;whiteSpace=wrap;html=1;" vertex="1" parent="wCv3o4SlWXgTBWyX9Gei-1">
          <mxGeometry x="80" y="80" width="120" height="60" as="geometry" />
        </mxCell>
        <mxCell id="wCv3o4SlWXgTBWyX9Gei-5" value="B1" style="whiteSpace=wrap;html=1;rounded=0;fillColor=#999999;" vertex="1" parent="wCv3o4SlWXgTBWyX9Gei-1">
          <mxGeometry x="80" y="220" width="120" height="60" as="geometry" />
        </mxCell>
        <mxCell id="wCv3o4SlWXgTBWyX9Gei-6" value="" style="edgeStyle=orthogonalEdgeStyle;rounded=0;orthogonalLoop=1;jettySize=auto;html=1;" edge="1" parent="wCv3o4SlWXgTBWyX9Gei-1" source="wCv3o4SlWXgTBWyX9Gei-8" target="wCv3o4SlWXgTBWyX9Gei-9">
          <mxGeometry relative="1" as="geometry" />
        </mxCell>
        <mxCell id="wCv3o4SlWXgTBWyX9Gei-8" value="A2" style="rounded=0;whiteSpace=wrap;html=1;" vertex="1" parent="wCv3o4SlWXgTBWyX9Gei-1">
          <mxGeometry x="300" y="80" width="120" height="60" as="geometry" />
        </mxCell>
        <mxCell id="wCv3o4SlWXgTBWyX9Gei-9" value="B2" style="whiteSpace=wrap;html=1;rounded=0;" vertex="1" parent="wCv3o4SlWXgTBWyX9Gei-1">
          <mxGeometry x="300" y="220" width="120" height="60" as="geometry" />
        </mxCell>
      </root>
    </mxGraphModel>
  </diagram>
</mxfile>
